<?xml version="1.0" encoding="utf-8"?>
<!-- Generator: Adobe Illustrator 25.4.1, SVG Export Plug-In . SVG Version: 6.00 Build 0)  -->
<svg version="1.1" id="Layer_1" xmlns="http://www.w3.org/2000/svg" xmlns:xlink="http://www.w3.org/1999/xlink" x="0px" y="0px"
	 viewBox="0 0 348 104" style="enable-background:new 0 0 348 104;" xml:space="preserve">
<style type="text/css">
	.st0{display:none;}
	.st1{display:inline;fill:#B42322;}
	.st2{display:inline;opacity:0.54;}
	.st3{clip-path:url(#SVGID_00000031204940537674875540000007390086071312588957_);}
	.st4{clip-path:url(#SVGID_00000174590065718496145390000005189437259356920238_);}
	.st5{clip-path:url(#SVGID_00000002367684077743684190000001998989056495533957_);}
	.st6{display:inline;opacity:0.9;}
	.st7{clip-path:url(#SVGID_00000135653591383634676570000002949624663928843143_);}
	.st8{fill-rule:evenodd;clip-rule:evenodd;fill:url(#SVGID_00000087384386498061251790000006389219646279469972_);}
	.st9{fill:#2B2A29;}
	.st10{fill-rule:evenodd;clip-rule:evenodd;fill:#FECC00;}
	.st11{fill:#8B244F;}
	.st12{font-family:'ArialNarrow-Bold';}
	.st13{font-size:16.635px;}
</style>
<g class="st0">
	<path class="st1" d="M-102.4-72.4c0-0.2,0-0.3,0-0.5c0-0.1,0-0.2,0-0.3v-34.1h-0.3c-6.5,0-11.7,5.3-11.7,11.8v19.1l0,0v3.3
		c0,0.1,0,0.1,0,0.2s0,0.1,0,0.2v0.4c-0.3,4.6-4.2,8.3-8.9,8.3c-4.7,0-8.6-3.7-8.9-8.3v-6.1l0,0v-17.2c0-6.5-5.3-11.8-11.8-11.8
		h-0.3v35.5l0,0c0.5,11.1,9.7,20,21,20c11.2,0,20.4-8.8,20.9-19.8l0,0V-72.4z"/>
	<path class="st1" d="M-85.5-79.6l19.1-27.6h-9.1c-3.5,0-6.7,1.7-8.6,4.5l-15.8,23l15.8,23c1.9,2.8,5.2,4.5,8.6,4.5h9.1L-85.5-79.6z
		"/>
	<path class="st1" d="M-102.4-72.4c0-0.2,0-0.3,0-0.5c0-0.1,0-0.2,0-0.3v-34.1h-0.3c-6.5,0-11.7,5.3-11.7,11.8v19.1l0,0v3.3
		c0,0.1,0,0.1,0,0.2s0,0.1,0,0.2v0.4c-0.3,4.6-4.2,8.3-8.9,8.3c-4.7,0-8.6-3.7-8.9-8.3v-6.1l0,0v-17.2c0-6.5-5.3-11.8-11.8-11.8
		h-0.3v35.5l0,0c0.5,11.1,9.7,20,21,20c11.2,0,20.4-8.8,20.9-19.8l0,0V-72.4z"/>
	<path class="st1" d="M-85.5-79.6l19.1-27.6h-9.1c-3.5,0-6.7,1.7-8.6,4.5l-15.8,23l15.8,23c1.9,2.8,5.2,4.5,8.6,4.5h9.1L-85.5-79.6z
		"/>
	<g class="st2">
		<g>
			<g>
				<defs>
					<rect id="SVGID_1_" x="-94.2" y="-79.7" width="14.8" height="17.3"/>
				</defs>
				<clipPath id="SVGID_00000113336597145678630090000007806984872348073116_">
					<use xlink:href="#SVGID_1_"  style="overflow:visible;"/>
				</clipPath>
				<g style="clip-path:url(#SVGID_00000113336597145678630090000007806984872348073116_);">
					<g>
						<defs>
							<path id="SVGID_00000072982105987166431360000008598585584384025737_" d="M-85.5-79.6c-3.4,4.7-8.7,8.3-8.7,8.3l5.9,8.8
								l8.8-8.2L-85.5-79.6z"/>
						</defs>
						<clipPath id="SVGID_00000134209176229533473860000002680503296464311197_">
							<use xlink:href="#SVGID_00000072982105987166431360000008598585584384025737_"  style="overflow:visible;"/>
						</clipPath>
						<g style="clip-path:url(#SVGID_00000134209176229533473860000002680503296464311197_);">
							<g>
								<g>
									<defs>
										<rect id="SVGID_00000160170942532381517400000010602942610266871441_" x="-94.3" y="-79.7" width="14.8" height="17.1"/>
									</defs>
									<clipPath id="SVGID_00000068668602510467218930000007744899939380314550_">
										<use xlink:href="#SVGID_00000160170942532381517400000010602942610266871441_"  style="overflow:visible;"/>
									</clipPath>
									<g style="clip-path:url(#SVGID_00000068668602510467218930000007744899939380314550_);">
										
											<image style="overflow:visible;enable-background:new    ;" width="67" height="75" xlink:href="81D252AB.jpg"  transform="matrix(0.2221 0 0 0.2221 -94.32 -79.5284)">
										</image>
									</g>
								</g>
							</g>
						</g>
					</g>
				</g>
			</g>
		</g>
	</g>
	<g class="st6">
		<g>
			<g>
				<defs>
					<rect id="SVGID_00000012443280044770124020000008977499614250494899_" x="-136.4" y="-66.2" width="32.9" height="14.3"/>
				</defs>
				<clipPath id="SVGID_00000067921565640819274860000012415835259595048337_">
					<use xlink:href="#SVGID_00000012443280044770124020000008977499614250494899_"  style="overflow:visible;"/>
				</clipPath>
				<g style="clip-path:url(#SVGID_00000067921565640819274860000012415835259595048337_);">
					<g>
						
							<linearGradient id="SVGID_00000071530261208833970210000000484995541543078072_" gradientUnits="userSpaceOnUse" x1="-119.95" y1="139.8911" x2="-119.95" y2="174.7182" gradientTransform="matrix(1 0 0 -1 0 106)">
							<stop  offset="0" style="stop-color:#FFFFFF"/>
							<stop  offset="0.3633" style="stop-color:#FDFDFD"/>
							<stop  offset="0.4982" style="stop-color:#F6F6F6"/>
							<stop  offset="0.595" style="stop-color:#EAEAEA"/>
							<stop  offset="0.6738" style="stop-color:#D9D9D9"/>
							<stop  offset="0.7414" style="stop-color:#C3C3C3"/>
							<stop  offset="0.8014" style="stop-color:#A8A8A8"/>
							<stop  offset="0.8559" style="stop-color:#878787"/>
							<stop  offset="0.9059" style="stop-color:#616161"/>
							<stop  offset="0.9525" style="stop-color:#353535"/>
							<stop  offset="0.9941" style="stop-color:#070707"/>
							<stop  offset="1" style="stop-color:#000000"/>
						</linearGradient>
						
							<path id="SVGID_00000042017783643497981740000005484502848546956436_" style="fill-rule:evenodd;clip-rule:evenodd;fill:url(#SVGID_00000071530261208833970210000000484995541543078072_);" d="
							M-123.4-51.9c9.2-0.1,17-5.9,19.9-14.3l0,0c0,0-13.4,9.8-32.9,9.8C-133.1-54.4-130-52-123.4-51.9z"/>
					</g>
				</g>
			</g>
		</g>
	</g>
</g>
<g>
	<g>
		<path class="st9" d="M62.8,34.2h7.8v10.4c1.1-1.1,2.1-1.9,3.2-2.4c1-0.5,2.3-0.7,3.7-0.7c2.1,0,3.8,0.6,5,1.9
			c1.2,1.3,1.8,3.3,1.8,6v13h-7.9V51.2c0-1.3-0.2-2.2-0.7-2.7c-0.5-0.5-1.1-0.8-2-0.8c-0.9,0-1.7,0.4-2.3,1.1
			c-0.6,0.7-0.9,2-0.9,3.9v9.8h-7.8V34.2z M13.7,42h7.3v3.3c0.7-1.4,1.4-2.4,2.2-3c0.7-0.5,1.7-0.8,2.8-0.8c1.2,0,2.4,0.4,3.8,1.1
			l-2.4,5.6c-0.9-0.4-1.7-0.6-2.2-0.6c-1,0-1.8,0.4-2.4,1.3c-0.8,1.2-1.2,3.4-1.2,6.7v6.8h-7.9V42z M30.9,42h7.8v20.4h-7.8V42z
			 M39.7,56.8l7.8-0.7c0.3,0.9,0.8,1.6,1.3,2c0.6,0.4,1.3,0.6,2.3,0.6c1,0,1.9-0.2,2.4-0.7c0.4-0.3,0.7-0.7,0.7-1.2
			c0-0.6-0.3-1-0.9-1.3c-0.4-0.2-1.5-0.5-3.4-0.8c-2.7-0.5-4.6-0.9-5.7-1.3c-1.1-0.4-1.9-1.1-2.7-2c-0.7-1-1.1-2.1-1.1-3.3
			c0-1.3,0.4-2.5,1.2-3.5c0.8-1,1.9-1.7,3.2-2.2c1.4-0.5,3.2-0.7,5.5-0.7c2.4,0,4.2,0.2,5.4,0.6c1.2,0.4,2.1,1,2.9,1.7
			c0.8,0.8,1.4,1.8,1.9,3.2l-7.4,0.7c-0.2-0.7-0.5-1.1-1-1.4c-0.6-0.4-1.4-0.6-2.2-0.6c-0.9,0-1.5,0.2-1.9,0.5
			c-0.4,0.3-0.6,0.7-0.6,1.1c0,0.5,0.3,0.9,0.8,1.1c0.5,0.3,1.6,0.5,3.3,0.7c2.6,0.3,4.5,0.7,5.8,1.2c1.3,0.5,2.2,1.3,2.9,2.2
			c0.7,1,1,2,1,3.2c0,1.2-0.4,2.3-1.1,3.4c-0.7,1.1-1.8,2-3.4,2.7c-1.5,0.7-3.6,1-6.3,1c-3.7,0-6.4-0.5-8-1.6
			C41.2,60.2,40.2,58.7,39.7,56.8z M86.8,42h7.8v20.4h-7.8V42z M128.2,52.7c-1.1,0.4-2.2,0.7-3.4,1c-1.6,0.4-2.6,0.8-3,1.2
			c-0.4,0.4-0.7,0.9-0.7,1.4c0,0.6,0.2,1.1,0.6,1.5c0.4,0.4,1.1,0.6,1.9,0.6c0.9,0,1.7-0.2,2.4-0.6c0.7-0.4,1.3-0.9,1.6-1.5
			c0.3-0.6,0.5-1.4,0.5-2.4V52.7z M121.4,48.6l-7.5-0.8c0.3-1.3,0.7-2.3,1.2-3.1c0.5-0.7,1.3-1.4,2.3-1.9c0.7-0.4,1.7-0.7,3-0.9
			c1.3-0.2,2.6-0.3,4.1-0.3c2.3,0,4.2,0.1,5.6,0.4c1.4,0.3,2.6,0.8,3.6,1.6c0.7,0.6,1.2,1.4,1.6,2.4c0.4,1.1,0.6,2.1,0.6,3v9
			c0,1,0.1,1.7,0.2,2.3c0.1,0.5,0.4,1.2,0.8,2.1h-7.3c-0.3-0.5-0.5-0.9-0.6-1.2c-0.1-0.3-0.2-0.7-0.3-1.3c-1,1-2,1.7-3.1,2.1
			c-1.4,0.6-3,0.8-4.8,0.8c-2.4,0-4.3-0.6-5.5-1.7c-1.3-1.1-1.9-2.5-1.9-4.2c0-1.6,0.5-2.8,1.4-3.8c0.9-1,2.6-1.7,5-2.2
			c2.9-0.6,4.8-1,5.7-1.2c0.9-0.2,1.8-0.6,2.8-0.9c0-1-0.2-1.6-0.6-2c-0.4-0.4-1.1-0.6-2.1-0.6c-1.3,0-2.2,0.2-2.9,0.6
			C122.2,47.1,121.7,47.7,121.4,48.6z M107.6,34.2V42h4.3v5.7h-4.3v7.2c0,0.9,0.1,1.4,0.2,1.7c0.3,0.4,0.7,0.7,1.3,0.7
			c0.6,0,1.4-0.2,2.4-0.5l0.6,5.4c-1.9,0.4-3.7,0.6-5.4,0.6c-1.9,0-3.4-0.2-4.3-0.7c-0.9-0.5-1.6-1.3-2-2.3c-0.4-1-0.7-2.7-0.7-4.9
			v-7.2h-2.9V42L107.6,34.2z"/>
		<polygon class="st10" points="30.3,34.7 41,34.7 38.6,41.8 		"/>
	</g>
	<g>
		<rect x="143.5" y="12.5" class="st10" width="2" height="73.6"/>
	</g>
	<g>
		<path class="st11" d="M291.6,61.1h4c0.2,1,0.6,1.8,1.3,2.2c0.8,0.5,1.8,0.7,3.1,0.7c1.2,0,2.1-0.2,2.7-0.6
			c0.6-0.4,0.9-0.9,0.9-1.7c0-1.1-1.7-2-5.1-2.7l-0.1-0.1c0,0-0.2,0-0.5-0.1c-1.9-0.4-3.2-0.8-3.8-1.2c-0.8-0.4-1.3-0.9-1.6-1.7
			c-0.4-0.6-0.6-1.4-0.6-2.4c0-1.7,0.6-3.1,1.9-4c1.3-0.9,3.1-1.4,5.6-1.4c2.3,0,4.1,0.5,5.3,1.5c1.3,1.1,2,2.5,2,4.2h-2.3
			c-0.9,0-1.5-0.4-1.9-1.1c-0.2-0.3-0.5-0.6-0.8-0.9c-0.7-0.5-1.6-0.7-2.8-0.7c-1.1,0-1.9,0.2-2.4,0.6c-0.6,0.4-0.8,0.9-0.8,1.6
			c0,0.9,1.1,1.6,3.3,2.1c0.6,0.2,1.1,0.3,1.4,0.3c0.7,0.2,1.3,0.4,1.8,0.5c0.5,0.1,0.9,0.2,1.2,0.3c0.5,0.2,1.1,0.4,1.6,0.6
			c0.8,0.4,1.3,1,1.7,1.6c0.4,0.7,0.6,1.5,0.6,2.4c0,1.9-0.7,3.4-2,4.4c-1.4,1-3.3,1.5-5.8,1.5c-2.6,0-4.5-0.5-5.8-1.5
			C292.5,64.6,291.7,63.1,291.6,61.1 M277,66.7V51.9h-5.8v-1.3c0-0.5,0.2-1,0.6-1.3c0.4-0.4,0.9-0.6,1.4-0.6h13.4v3.2H281v14.8H277z
			 M250.2,66.7V50.6c0-0.5,0.2-1,0.6-1.3c0.4-0.4,0.9-0.6,1.4-0.6h2v6.7h8v-6.7h4.1v18h-4.1v-8h-8v8H250.2z M241.9,64.6
			c-0.7,0.9-1.5,1.6-2.4,2c-1,0.4-2,0.6-3.2,0.6c-2.8,0-5-0.9-6.6-2.6c-1.7-1.7-2.5-4-2.5-6.9c0-2.9,0.8-5.2,2.4-6.9
			c1.7-1.7,3.9-2.6,6.7-2.6c2.4,0,4.4,0.5,6,1.6c1.5,1.2,2.5,2.7,2.8,4.5h-2.7c-0.8,0-1.4-0.3-1.7-1c-0.3-0.4-0.6-0.8-1.1-1.2
			c-0.8-0.5-1.7-0.7-3-0.7c-1.6,0-2.9,0.5-3.8,1.6c-0.9,1.2-1.4,2.7-1.4,4.6c0,2,0.5,3.5,1.5,4.6c0.9,1.1,2.3,1.6,4,1.6
			c1.3,0,2.3-0.3,3.2-1c0.8-0.7,1.4-1.7,1.6-2.9h-2.4c-0.6,0-1-0.2-1.4-0.5c-0.4-0.4-0.6-0.8-0.6-1.3v-1.2h8.1v9.8h-1.1
			c-1.1,0-1.7-0.5-2-1.5L241.9,64.6z M219.1,66.7V50.6c0-0.5,0.2-1,0.6-1.3c0.4-0.4,0.9-0.6,1.4-0.6h2v18H219.1z M200.2,66.7V50.6
			c0-0.5,0.2-1,0.6-1.3c0.4-0.4,0.9-0.6,1.4-0.6h12.1v3.1h-10.2v3.9h7.6v1.2c0,0.5-0.2,1-0.6,1.3c-0.4,0.4-0.9,0.6-1.4,0.6h-5.5v4.6
			h10.2v3.4H200.2z M179.1,66.7V50.6c0-0.5,0.2-1,0.6-1.3c0.4-0.4,0.9-0.6,1.4-0.6h2v6.7h8v-6.7h4.1v18h-4.1v-8h-8v8H179.1z"/>
		<path class="st11" d="M311.8,17.4c-1.5-2.5-2.3-3.1-4.3-3.1v-1.4h11.4v1.4c-2.4,0-3.3,0.3-3.3,1.2c0,0.5,0.3,1.2,0.8,2.2l5.6,9.6
			h0.1l4.1-6.9c1.5-2.6,2.1-4,2.1-4.9c0-0.9-0.6-1.2-2.3-1.2v-1.4h8.3v1.4c-2,0-3,0.9-5.9,5.9l-5.6,9.4v4.3c0,4.7,0.5,5.4,3.9,5.4
			v1.4H315v-1.4c3.4,0,4-0.8,4-5.2v-4.4L311.8,17.4z M230.1,40.7h-16.8v-1c2.4-0.1,2.9-0.5,2.9-3V24.6c0-2.4-0.4-2.9-2.6-3v-1h7.9v1
			c-2.2,0.1-2.6,0.5-2.6,3.1V36c0,2.9,1,3.5,4.6,3.5c4,0,5.2-0.7,6-3.9h1L230.1,40.7z M232.6,40.7v-1c2.7-0.1,3.1-0.5,3.1-3V24.6
			c0-2.4-0.4-2.9-2.6-3v-1h7.8c4.6,0,7.4,1.8,7.4,4.7c0,2.3-1.4,3.7-4.5,4.6v0.1c2.1,0.2,3.1,0.5,4.1,1.2c1.5,1.1,2.3,2.5,2.3,4.1
			c0,1.8-1.1,3.5-2.9,4.4c-1.2,0.6-2.4,0.8-5.4,0.8H232.6z M239.9,29.5c2.2,0,2.7-0.1,3.6-0.6c1.1-0.7,1.5-1.6,1.5-3.1
			c0-2.7-1.3-3.8-4.1-3.8h-2c-0.3,0-0.4,0.2-0.4,0.4v7.2H239.9z M246.7,35.5c0-1.9-0.8-3.3-2.4-4.1c-1.1-0.5-1.9-0.6-4.7-0.6h-1.2
			v5.8c0,2.1,1,3,3.6,3C245.2,39.5,246.7,38.2,246.7,35.5z M257.5,29.7c3.7,0,4.9-0.9,4.9-3h0.9v7.1h-0.9c0-2.1-1-3-4.9-3.1v5.9
			c0,2.3,1,3,4.3,3c3.7,0,5-0.9,5.6-4h1l-0.4,5.1h-16.1v-1c2.4-0.1,2.9-0.5,2.9-3V24.6c0-2.4-0.4-2.9-2.6-3v-1h15l0.2,4.6h-0.9
			c-0.4-2.7-1.7-3.4-5.3-3.4H258c-0.3,0-0.4,0.2-0.4,0.4V29.7z M281.5,31l5.7,6.9c0.9,1.1,2,1.6,3.6,1.8v1h-5l-6.4-8.1
			c-0.9-1.2-1.4-1.3-3-1.3v5.4c0,2.6,0.4,3.1,3.6,3.1v1h-9.2v-1c2.4-0.1,2.9-0.5,2.9-3V24.6c0-2.4-0.4-2.9-2.6-3v-1h8.1
			c4.7,0,7.5,1.9,7.5,5C286.7,28.4,285.1,30.4,281.5,31z M276.4,29.9h1.8c3.4,0,5.1-1.2,5.1-4.1c0-2.8-1.3-3.9-4.1-3.9h-2.4
			c-0.3,0-0.4,0.2-0.4,0.4V29.9z M302.7,31l5.7,6.9c0.9,1.1,2,1.6,3.6,1.8v1h-5l-6.4-8.1c-0.9-1.2-1.4-1.3-3-1.3v5.4
			c0,2.6,0.4,3.1,3.6,3.1v1H292v-1c2.4-0.1,2.9-0.5,2.9-3V24.6c0-2.4-0.4-2.9-2.6-3v-1h8.1c4.7,0,7.5,1.9,7.5,5
			C307.9,28.4,306.3,30.4,302.7,31z M297.6,29.9h1.8c3.4,0,5.1-1.2,5.1-4.1c0-2.8-1.3-3.9-4.1-3.9H298c-0.3,0-0.4,0.2-0.4,0.4V29.9z
			 M208.5,32.6c0,5.5-2,8.3-7.5,8.3c-5.1,0-7.6-1.9-7.6-7.3v-6.8c0-2.6,0-3.8-0.6-4.5c-0.4-0.4-1.1-0.6-2.3-0.6v-1h8.8v1
			c-1.2,0-1.9,0.1-2.3,0.6c-0.5,0.6-0.6,1.9-0.6,4.4v7.1c0,3.5,1.4,5.5,5.2,5.5c3.5,0,5.2-2,5.2-5.7v-6.3c0-3.1-0.2-4.5-0.9-5.2
			c-0.5-0.4-1.2-0.5-2.3-0.5v-1h7.5v1c-1.1,0-1.8,0.1-2.2,0.7c-0.5,0.7-0.6,2.2-0.6,5V32.6z M172.1,34.2l9.4-21.3h8.1v1.4
			c-3.1,0.1-3.6,1.1-3.6,5.4v14.1c0,4.8,0.5,5.3,3.9,5.4v1.4h-11.7v-1.4c3.4-0.1,4-0.7,4-5.2V17.4h-0.4L171.3,41h-0.8l-10.4-23.7
			H160v16.5c0,4.8,0.5,5.3,3.9,5.4v1.4h-10.1v-1.4c3.4-0.1,4-0.7,4-5.2V19.5c0-4.1-0.5-5.1-3.6-5.2v-1.4h8.6l9.1,21.3H172.1z"/>
		<text transform="matrix(1 0 0 1 152.998 86.3925)" class="st12 st13">Sushant Golf City, Lucknow</text>
	</g>
</g>
</svg>
